<svg width="18" height="27" viewBox="0 0 18 27" fill="none" xmlns="http://www.w3.org/2000/svg">
<path opacity="0.3" d="M17.1721 26.3521H5.86957e-05V22.4281C3.19206 19.9561 5.73606 17.5441 7.63206 15.1921C9.55206 12.8161 10.5121 10.7641 10.5121 9.03605C10.5121 6.44405 8.79606 5.14805 5.36406 5.14805C4.21206 5.14805 2.50806 5.35205 0.252059 5.76005V0.684049C2.55606 0.228049 4.62006 4.88758e-05 6.44406 4.88758e-05C9.78006 4.88758e-05 12.2761 0.732049 13.9321 2.19605C15.6121 3.63605 16.4521 5.73605 16.4521 8.49605C16.4521 12.2161 13.8001 16.4641 8.49606 21.2401H17.1721V26.3521Z" fill="white"/>
</svg>
