<svg width="17" height="27" viewBox="0 0 17 27" fill="none" xmlns="http://www.w3.org/2000/svg">
<path opacity="0.3" d="M0.0361055 26.2799V21.3839C1.86011 21.6239 3.80411 21.7439 5.86811 21.7439C8.89211 21.7439 10.4041 20.6879 10.4041 18.5759C10.4041 17.6399 10.0321 16.9439 9.28811 16.4879C8.54411 16.0079 7.53611 15.7679 6.26411 15.7679H2.80811V10.9799H5.97611C7.17611 11.0039 8.16011 10.6799 8.92811 10.0079C9.69611 9.33592 10.0441 8.63992 9.97211 7.91992C9.97211 7.03192 9.61211 6.33592 8.89211 5.83192C8.17211 5.32792 7.14011 5.07592 5.79611 5.07592C4.86011 5.07592 3.80411 5.19592 2.62811 5.43592C1.38011 5.69992 0.504106 5.91592 0.000105545 6.08392V1.00792C2.44811 0.335918 4.87211 -8.22544e-05 7.27211 -8.22544e-05C9.52811 -8.22544e-05 11.4241 0.515918 12.9601 1.54792C13.8961 2.12392 14.6041 2.90392 15.0841 3.88792C15.5881 4.84792 15.8401 5.87992 15.8401 6.98392C15.8401 8.23192 15.5401 9.38392 14.9401 10.4399C14.3641 11.4959 13.5361 12.3599 12.4561 13.0319C13.3921 13.3199 14.2801 14.0279 15.1201 15.1559C15.9601 16.2839 16.3681 17.4359 16.3441 18.6119C16.3441 21.0839 15.3961 23.0639 13.5001 24.5519C11.6281 26.0159 9.16811 26.7479 6.12011 26.7479C5.23211 26.7479 4.24811 26.6999 3.16811 26.6039C1.94411 26.5079 0.900106 26.3999 0.0361055 26.2799Z" fill="white"/>
</svg>
