<svg width="235" height="261" viewBox="0 0 235 261" fill="none" xmlns="http://www.w3.org/2000/svg">
<rect width="235" height="261" fill="#161616"/>
<path opacity="0.7" d="M40.844 74.7141C40.844 71.7661 39.7019 70.2921 37.4177 70.2921C35.1432 70.2921 34.006 71.7661 34.006 74.7141C34.006 77.6914 35.1432 79.18 37.4177 79.18C39.7019 79.18 40.844 77.6914 40.844 74.7141ZM32.8346 74.7141C32.8346 72.9863 33.2153 71.6489 33.9767 70.7021C34.7381 69.7552 35.8949 69.2817 37.447 69.2817C38.9991 69.2817 40.1461 69.7552 40.888 70.7021C41.6298 71.6392 42.0008 72.9765 42.0008 74.7141C42.0008 78.3552 40.4828 80.1757 37.447 80.1757C35.8949 80.1757 34.7381 79.7023 33.9767 78.7554C33.2153 77.7988 32.8346 76.4517 32.8346 74.7141ZM46.0748 80.0146L43.3074 72.1077H44.4788L46.7484 78.814H46.8069L49.0619 72.1077H50.2186L47.4219 80.0146H46.0748ZM57.8851 78.6822V79.6632C56.8796 80.0049 55.8986 80.1757 54.9419 80.1757C53.6729 80.1757 52.7212 79.8389 52.0867 79.1654C51.4619 78.4918 51.1495 77.4473 51.1495 76.0319C51.1495 74.7043 51.457 73.6891 52.072 72.9863C52.687 72.2834 53.5802 71.932 54.7516 71.932C55.8644 71.932 56.6941 72.2493 57.2408 72.8838C57.7874 73.5183 58.0608 74.4944 58.0608 75.8123V76.3394H52.2917C52.3014 77.3253 52.5455 78.0477 53.0238 78.5065C53.5021 78.9653 54.2147 79.1947 55.1616 79.1947C56.0206 79.1947 56.9284 79.0238 57.8851 78.6822ZM52.2917 75.5048H56.9187C56.9187 73.7282 56.1817 72.8399 54.7077 72.8399C53.9267 72.8399 53.3264 73.079 52.9066 73.5573C52.4967 74.0259 52.2917 74.675 52.2917 75.5048ZM64.2291 72.0492V73.1913C63.7801 73.2694 63.3701 73.3816 62.9992 73.528C62.5599 73.694 61.9107 74.021 61.0517 74.5091V80H59.9682V72.1077H61.0224V73.5573L61.7399 73.0888C62.677 72.4836 63.5068 72.137 64.2291 72.0492ZM67.681 80.0146L64.9135 72.1077H66.0849L68.3545 78.814H68.4131L70.668 72.1077H71.8248L69.0281 80.0146H67.681ZM73.4524 72.1077H74.5359V80H73.4524V72.1077ZM73.4231 69.3403H74.5505V70.7899H73.4231V69.3403ZM83.1804 78.6822V79.6632C82.175 80.0049 81.1939 80.1757 80.2373 80.1757C78.9683 80.1757 78.0165 79.8389 77.382 79.1654C76.7573 78.4918 76.4449 77.4473 76.4449 76.0319C76.4449 74.7043 76.7524 73.6891 77.3674 72.9863C77.9824 72.2834 78.8756 71.932 80.0469 71.932C81.1598 71.932 81.9895 72.2493 82.5362 72.8838C83.0828 73.5183 83.3561 74.4944 83.3561 75.8123V76.3394H77.587C77.5968 77.3253 77.8408 78.0477 78.3191 78.5065C78.7975 78.9653 79.5101 79.1947 80.4569 79.1947C81.316 79.1947 82.2238 79.0238 83.1804 78.6822ZM77.587 75.5048H82.214C82.214 73.7282 81.477 72.8399 80.003 72.8399C79.2221 72.8399 78.6218 73.079 78.202 73.5573C77.792 74.0259 77.587 74.675 77.587 75.5048ZM85.205 77.7158V72.1077H86.2885V77.8036C86.2885 78.2429 86.4203 78.5846 86.6839 78.8286C86.9572 79.0726 87.3428 79.1947 87.8406 79.1947C88.5727 79.1947 89.422 78.8286 90.3884 78.0965C90.3493 77.911 90.3298 77.6279 90.3298 77.2472V72.1077H91.3694V77.4961C91.3304 77.9549 91.4963 78.36 91.8673 78.7115C92.2382 79.0531 92.7556 79.2142 93.4194 79.1947C94.0246 79.1947 94.5176 79.0434 94.8983 78.7408C95.2887 78.4381 95.484 78.0135 95.484 77.4669V72.1077H96.5821V77.4961C96.5821 78.3552 96.2991 79.019 95.7329 79.4875C95.1667 79.9463 94.3858 80.1757 93.3901 80.1757C92.7556 80.1855 92.1894 80.0586 91.6916 79.795C91.2035 79.5217 90.8618 79.1995 90.6666 78.8286C89.544 79.7267 88.5386 80.1757 87.6503 80.1757C86.0201 80.1757 85.205 79.3557 85.205 77.7158ZM33.3178 119V108.457H39.9801V109.468H34.4453V113.494H39.3651V114.49H34.4453V119H33.3178ZM41.3002 119H40.0849L43.8187 108.443H45.4733L49.2364 119H48.0065L47.1426 116.525H42.1641L41.3002 119ZM44.7412 109.438H44.5216L42.4277 115.515H46.8497L44.7412 109.438ZM50.1081 113.729C50.1081 111.991 50.4839 110.649 51.2356 109.702C51.997 108.755 53.1586 108.282 54.7205 108.282C56.2823 108.282 57.4342 108.755 58.1761 109.702C58.918 110.649 59.2889 111.991 59.2889 113.729C59.2889 116.53 58.3811 118.253 56.5654 118.898L58.3664 120.933H56.9315L55.3208 119.117L54.8376 119.146C51.6846 119.146 50.1081 117.341 50.1081 113.729ZM58.1322 113.729C58.1322 110.771 56.9852 109.292 54.6912 109.292C53.5979 109.292 52.7535 109.653 52.158 110.376C51.5723 111.098 51.2795 112.216 51.2795 113.729C51.2795 114.353 51.3332 114.92 51.4406 115.427C51.5479 115.925 51.7237 116.389 51.9677 116.818C52.2215 117.248 52.5778 117.585 53.0366 117.829C53.4954 118.063 54.0469 118.18 54.6912 118.18C56.9852 118.18 58.1322 116.696 58.1322 113.729ZM32.82 151.714C32.82 150.016 33.2202 148.688 34.0207 147.731C34.8211 146.765 35.9925 146.282 37.5348 146.282C38.3646 146.282 39.2578 146.394 40.2144 146.619V147.687C39.2968 147.424 38.4573 147.292 37.6959 147.292C35.2262 147.292 33.9914 148.756 33.9914 151.685C33.9914 153.139 34.2989 154.252 34.9138 155.023C35.5288 155.785 36.4269 156.165 37.608 156.165C38.5354 156.165 39.4091 156.019 40.229 155.726V156.78C39.9362 156.858 39.5994 156.937 39.2187 157.015C38.7014 157.122 38.1449 157.176 37.5495 157.176C35.9779 157.176 34.7967 156.697 34.006 155.741C33.2153 154.774 32.82 153.432 32.82 151.714ZM44.2469 152.446H46.7068V151.494C46.7068 150.421 46.0626 149.884 44.774 149.884C44.4421 149.884 44.0029 149.923 43.4562 150.001C42.8705 150.089 42.4361 150.172 42.153 150.25V149.283C42.4752 149.215 42.9486 149.137 43.5734 149.049C44.1493 148.971 44.6276 148.932 45.0083 148.932C45.8966 148.932 46.5848 149.157 47.0729 149.606C47.561 150.055 47.805 150.704 47.805 151.553V157H46.8679L46.78 155.975C45.7355 156.707 44.7838 157.073 43.9248 157.073C43.2512 157.102 42.6655 156.907 42.1677 156.488C41.6796 156.068 41.4502 155.502 41.4795 154.789C41.4795 154.037 41.7235 153.461 42.2116 153.061C42.7094 152.651 43.3879 152.446 44.2469 152.446ZM46.7068 155.14V153.252H44.3494C43.7832 153.252 43.3488 153.383 43.0462 153.647C42.7436 153.901 42.5923 154.262 42.5923 154.73C42.5923 155.189 42.7387 155.546 43.0316 155.799C43.3244 156.043 43.7247 156.165 44.2323 156.165C44.613 156.165 45.0376 156.068 45.5062 155.873C45.9747 155.677 46.3749 155.433 46.7068 155.14ZM54.334 149.049V150.191C53.885 150.269 53.475 150.382 53.1041 150.528C52.6648 150.694 52.0157 151.021 51.1566 151.509V157H50.0731V149.108H51.1274V150.557L51.8448 150.089C52.7819 149.484 53.6117 149.137 54.334 149.049ZM59.7333 150.074H57.1709V155.272C57.1709 155.555 57.2539 155.78 57.4198 155.946C57.5955 156.112 57.8542 156.195 58.1959 156.195C58.5766 156.195 58.9914 156.121 59.4405 155.975V156.941C58.6986 157.088 58.1227 157.161 57.7127 157.161C57.1367 157.161 56.717 157.024 56.4534 156.751C56.1996 156.468 56.0727 156.038 56.0727 155.463V150.074H54.9453V149.401L55.1942 149.122H56.0727V148.068L56.7316 147.38H57.1709V149.122H59.7333V150.074Z" fill="white"/>
<line opacity="0.3" x1="29" y1="93.8686" x2="197" y2="93.8686" stroke="white" stroke-width="0.262821"/>
<line opacity="0.3" x1="29" y1="132.869" x2="197" y2="132.869" stroke="white" stroke-width="0.262821"/>
<line opacity="0.3" x1="29" y1="171.869" x2="197" y2="171.869" stroke="white" stroke-width="0.262821"/>
<path d="M202.562 37L198.5 41.0625L194.437 37L192 39.4375L196.062 43.5L192 47.5625L194.437 50L198.5 45.9375L202.562 50L205 47.5625L200.937 43.5L205 39.4375L202.562 37Z" fill="url(#paint0_linear_475_291)"/>
<defs>
<linearGradient id="paint0_linear_475_291" x1="193.176" y1="39.0269" x2="200.782" y2="39.1173" gradientUnits="userSpaceOnUse">
<stop stop-color="#EC1EB1"/>
<stop offset="1" stop-color="#5E01BA"/>
</linearGradient>
</defs>
</svg>
