<svg width="121" height="101" viewBox="0 0 121 101" fill="none" xmlns="http://www.w3.org/2000/svg">
<g opacity="0.36">
<path d="M120.688 64.1792C120.688 63.4795 120.65 62.7768 120.623 62.0771C120.603 61.5902 120.545 61.1033 120.55 60.6194C120.58 57.6164 120.626 54.6163 120.653 51.6133C120.653 50.8932 120.603 50.1731 120.582 49.453C120.582 49.1993 120.568 48.9457 120.582 48.692C120.612 47.6803 120.673 46.6686 120.673 45.657C120.673 33.1902 120.673 20.7235 120.673 8.25682C120.68 7.18472 120.49 6.12043 120.113 5.11681C119.753 4.15604 119.204 3.27702 118.499 2.53149C117.794 1.78595 116.947 1.18894 116.008 0.775613C114.933 0.259387 113.755 -0.00578952 112.562 9.58647e-05C95.1622 0.0234199 77.7664 0.0292502 60.3744 0.0175882H60.3277C42.9279 0.0175882 25.5272 0.0117579 8.12549 9.58647e-05C6.93384 -0.00534763 5.75657 0.259818 4.68232 0.775613C3.74318 1.18894 2.89617 1.78595 2.19119 2.53149C1.4862 3.27702 0.937468 4.15604 0.577265 5.11681C0.19883 6.12006 0.00907374 7.1846 0.0175101 8.25682C0.0175101 20.7235 0.0175101 33.1902 0.0175101 45.657C0.0175101 46.6686 0.0786817 47.6803 0.107837 48.692C0.107837 48.9457 0.107837 49.1993 0.107837 49.453C0.0845127 50.1731 0.0320364 50.8932 0.0378674 51.6133C0.064107 54.6163 0.110784 57.6164 0.139939 60.6194C0.139939 61.1062 0.0845441 61.5931 0.067051 62.0771C0.0378959 62.7768 0.0145775 63.4795 0 64.1792C0 64.5495 0.0437497 64.9226 0.0175101 65.29C-0.0903637 66.7944 0.364436 68.188 0.871734 69.5612C1.03826 69.9351 1.26259 70.2804 1.53648 70.5846C2.14874 71.3397 2.75224 72.0802 3.64147 72.5759C4.37618 72.984 5.09924 73.4214 5.91558 73.5992C6.40311 73.7298 6.90193 73.8138 7.40536 73.8499C9.82232 73.8849 12.2422 73.8937 14.6592 73.8937H51.1672C51.4202 73.8858 51.6735 73.8955 51.9252 73.9228C52.1238 73.9266 52.314 74.0042 52.4584 74.1406C52.6029 74.277 52.6914 74.4623 52.7066 74.6604C52.7367 74.814 52.7493 74.9705 52.7444 75.1269C52.7056 77.6187 52.6861 80.1144 52.6861 82.614C52.6861 82.9055 52.7299 83.1971 52.7386 83.4886C52.7558 83.5956 52.7509 83.7049 52.7241 83.8099C52.6973 83.9149 52.6491 84.0132 52.5827 84.0988C52.5162 84.1844 52.4329 84.2554 52.3379 84.3074C52.2428 84.3594 52.1381 84.3913 52.0302 84.4012C51.7812 84.4469 51.5281 84.4664 51.275 84.4595C48.896 84.4595 46.5169 84.4595 44.1379 84.4595C43.4917 84.4134 42.8461 84.5573 42.2807 84.8735C42.217 84.9196 42.1446 84.9523 42.0679 84.9697C41.1932 85.1038 40.546 85.6461 39.8696 86.1359C39.5716 86.3848 39.2946 86.6578 39.0416 86.9522C38.3745 87.6918 37.8204 88.5259 37.3972 89.4275C37.1056 90.0058 36.9576 90.6458 36.9657 91.2934C36.9657 93.4422 36.9512 95.588 36.9657 97.7338C36.9671 98.3855 37.2229 99.0108 37.6788 99.4765C38.1347 99.9422 38.7545 100.211 39.406 100.227C39.6771 100.227 39.9512 100.227 40.2253 100.227H80.436C80.7101 100.227 80.9841 100.227 81.2553 100.227C81.9065 100.211 82.526 99.9421 82.9814 99.4763C83.4368 99.0106 83.692 98.3852 83.6926 97.7338C83.7218 95.588 83.7159 93.4422 83.7071 91.2934C83.7124 90.6461 83.5646 90.0067 83.2756 89.4275C82.8514 88.5258 82.2963 87.6917 81.6284 86.9522C81.3768 86.6564 81.0998 86.3832 80.8004 86.1359C80.1241 85.6519 79.468 85.1096 78.6021 84.9697C78.5258 84.9511 78.4537 84.9185 78.3893 84.8735C77.8251 84.557 77.1802 84.4131 76.535 84.4595C74.1559 84.4711 71.7768 84.4711 69.3978 84.4595C69.1447 84.4665 68.8917 84.447 68.6427 84.4012C68.5347 84.3918 68.4296 84.3601 68.3344 84.3083C68.2391 84.2564 68.1556 84.1853 68.0891 84.0997C68.0226 84.014 67.9745 83.9155 67.9479 83.8103C67.9212 83.7052 67.9165 83.5956 67.9342 83.4886C67.9342 83.1971 67.9867 82.9055 67.9867 82.614C67.9867 80.1183 67.9546 77.6226 67.94 75.1269C67.938 74.9706 67.9508 74.8144 67.9781 74.6604C67.9932 74.4623 68.0817 74.277 68.2262 74.1406C68.3707 74.0042 68.5607 73.9266 68.7593 73.9228C69.012 73.8956 69.2663 73.8859 69.5204 73.8937H106.025C108.445 73.8937 110.862 73.8937 113.282 73.8499C113.785 73.8136 114.284 73.7296 114.772 73.5992C115.6 73.4214 116.311 72.984 117.046 72.5759C117.921 72.0802 118.539 71.3397 119.148 70.5846C119.423 70.2812 119.647 69.9357 119.813 69.5612C120.323 68.188 120.778 66.7944 120.667 65.29C120.644 64.9226 120.696 64.5378 120.688 64.1792ZM72.4154 89.719C73.5437 89.719 74.6778 89.8007 75.8061 89.7511C77.4009 89.6841 78.2901 90.8153 78.5204 91.9902C78.6245 92.624 78.6618 93.267 78.6313 93.9086C78.6313 94.5355 78.3018 94.8212 77.6691 94.8562C77.1822 94.8853 76.6924 94.8737 76.2114 94.8737H44.4586C43.9717 94.8737 43.4848 94.8737 43.0008 94.8562C42.3653 94.8212 42.0504 94.5355 42.0387 93.9086C42.0068 93.267 42.044 92.6239 42.1495 91.9902C42.3799 90.824 43.2661 89.6841 44.8638 89.7511C45.9921 89.8007 47.1234 89.719 48.2546 89.719H72.4184H72.4154ZM57.902 74.8849C57.9165 74.261 58.1935 73.9257 58.7766 73.9082C59.2985 73.9082 59.8233 73.8907 60.3481 73.8878C60.8729 73.8849 61.3947 73.8878 61.9195 73.9082C62.5026 73.9257 62.7651 74.261 62.7797 74.8849C62.7972 75.643 62.7797 76.4039 62.7797 77.1619C62.7797 79.2495 62.7797 81.335 62.7797 83.4186C62.7797 84.1213 62.5668 84.4157 61.8758 84.4332C61.3627 84.4332 60.8496 84.4507 60.3364 84.4507C59.8233 84.4507 59.3102 84.4507 58.797 84.4332C58.1061 84.4157 57.8904 84.1213 57.8904 83.4186C57.8904 81.335 57.8904 79.2495 57.8904 77.1619C57.9049 76.4039 57.8845 75.643 57.902 74.8849ZM115.396 65.9168C115.413 66.5105 115.205 67.0886 114.813 67.535C114.171 68.1997 113.437 68.7011 112.451 68.6166C112.276 68.6166 112.101 68.6166 111.924 68.6166H8.71442C8.53949 68.6166 8.36455 68.6166 8.18962 68.6166C7.20126 68.6895 6.46951 68.1997 5.82518 67.535C5.43306 67.0888 5.22469 66.5106 5.24208 65.9168C5.22459 65.4474 5.24208 64.978 5.24208 64.5116C5.20126 61.9751 5.14881 59.4415 5.11965 56.9079C5.11965 56.2636 5.16041 55.6193 5.20122 54.9778C5.35283 52.5813 5.20124 50.1818 5.22165 47.7853C5.22165 46.6745 5.23916 45.5607 5.23916 44.4499V9.80203C5.23916 9.25392 5.23916 8.70872 5.23916 8.16352C5.21621 7.45295 5.47418 6.76194 5.95715 6.24023C6.44011 5.71853 7.10919 5.40813 7.81941 5.37629C8.18968 5.37629 8.5599 5.32382 8.93017 5.32382H111.696C112.066 5.32382 112.434 5.36755 112.804 5.37629C113.514 5.40888 114.183 5.7194 114.666 6.24086C115.15 6.76231 115.409 7.45288 115.387 8.16352C115.387 8.70872 115.387 9.25392 115.387 9.80203C115.387 21.3494 115.387 32.8987 115.387 44.4499C115.387 45.5607 115.387 46.6745 115.405 47.7853C115.419 50.1818 115.273 52.5813 115.425 54.9778C115.466 55.6193 115.515 56.2636 115.507 56.9079C115.478 59.4415 115.425 61.9751 115.384 64.5116C115.387 64.978 115.413 65.4474 115.396 65.9168Z" fill="white"/>
<path d="M76.5057 36.0678L52.479 22.1958V49.9398L76.5057 36.0678Z" stroke="white" stroke-width="3.79016" stroke-miterlimit="10"/>
</g>
</svg>
