<svg width="150" height="101" viewBox="0 0 150 101" fill="none" xmlns="http://www.w3.org/2000/svg">
<g opacity="0.36" clip-path="url(#clip0_356_76)">
<path d="M120.711 64.1821C120.711 63.4824 120.673 62.7798 120.647 62.08C120.626 61.5931 120.568 61.1063 120.574 60.6223C120.603 57.6193 120.65 54.6192 120.676 51.6163C120.676 50.8961 120.626 50.176 120.606 49.4559C120.606 49.2022 120.591 48.9486 120.606 48.6949C120.635 47.6833 120.696 46.6716 120.696 45.6599C120.696 33.1932 120.696 20.7265 120.696 8.25975C120.703 7.18765 120.514 6.12336 120.137 5.11974C119.776 4.15897 119.228 3.27995 118.523 2.53441C117.818 1.78888 116.971 1.19187 116.032 0.778543C114.956 0.262316 113.778 -0.00285983 112.585 0.00302555C95.1857 0.0263496 77.7898 0.0321799 60.3978 0.0205179H60.3511C42.9514 0.0205179 25.5506 0.0146876 8.14892 0.00302555C6.95728 -0.00241794 5.78001 0.262747 4.70576 0.778543C3.76662 1.19187 2.91961 1.78888 2.21462 2.53441C1.50964 3.27995 0.960906 4.15897 0.600703 5.11974C0.222268 6.12299 0.0325112 7.18753 0.0409476 8.25975C0.0409476 20.7265 0.0409476 33.1932 0.0409476 45.6599C0.0409476 46.6716 0.102119 47.6833 0.131274 48.6949C0.131274 48.9486 0.131274 49.2022 0.131274 49.4559C0.10795 50.176 0.0554739 50.8961 0.0613049 51.6163C0.0875445 54.6192 0.134221 57.6193 0.163376 60.6223C0.163376 61.1092 0.107982 61.5961 0.0904885 62.08C0.0613334 62.7798 0.038015 63.4824 0.0234375 64.1821C0.0234375 64.5524 0.0671872 64.9256 0.0409476 65.2929C-0.0669262 66.7973 0.387873 68.1909 0.895172 69.5641C1.06169 69.938 1.28603 70.2834 1.55992 70.5875C2.17217 71.3426 2.77567 72.0831 3.66491 72.5788C4.39961 72.987 5.12267 73.4243 5.93902 73.6021C6.42655 73.7328 6.92536 73.8167 7.4288 73.8529C9.84576 73.8878 12.2657 73.8966 14.6826 73.8966H51.1906C51.4437 73.8887 51.6969 73.8985 51.9486 73.9258C52.1473 73.9295 52.3374 74.0072 52.4819 74.1436C52.6264 74.2799 52.7148 74.4653 52.73 74.6634C52.7601 74.8169 52.7728 74.9734 52.7679 75.1299C52.729 77.6216 52.7096 80.1173 52.7096 82.6169C52.7096 82.9084 52.7533 83.2 52.762 83.4915C52.7793 83.5985 52.7743 83.7079 52.7475 83.8129C52.7207 83.9178 52.6725 84.0162 52.6061 84.1018C52.5396 84.1873 52.4564 84.2584 52.3613 84.3104C52.2663 84.3624 52.1615 84.3943 52.0536 84.4041C51.8046 84.4498 51.5515 84.4693 51.2985 84.4624C48.9194 84.4624 46.5403 84.4624 44.1613 84.4624C43.5151 84.4163 42.8696 84.5602 42.3041 84.8764C42.2404 84.9225 42.168 84.9552 42.0913 84.9726C41.2167 85.1067 40.5694 85.649 39.893 86.1388C39.595 86.3877 39.3181 86.6607 39.065 86.9552C38.398 87.6948 37.8439 88.5288 37.4207 89.4304C37.1291 90.0087 36.9811 90.6488 36.9892 91.2964C36.9892 93.4451 36.9746 95.5909 36.9892 97.7367C36.9905 98.3884 37.2464 99.0137 37.7023 99.4794C38.1581 99.9451 38.7779 100.214 39.4294 100.229C39.7006 100.229 39.9746 100.229 40.2487 100.229H80.4594C80.7335 100.229 81.0076 100.229 81.2787 100.229C81.93 100.214 82.5494 99.945 83.0048 99.4792C83.4602 99.0135 83.7155 98.3881 83.716 97.7367C83.7452 95.5909 83.7393 93.4451 83.7306 91.2964C83.7359 90.6491 83.588 90.0097 83.2991 89.4304C82.8748 88.5287 82.3198 87.6947 81.6518 86.9552C81.4003 86.6593 81.1233 86.3862 80.8239 86.1388C80.1475 85.6548 79.4915 85.1126 78.6256 84.9726C78.5493 84.954 78.4771 84.9214 78.4128 84.8764C77.8485 84.56 77.2037 84.416 76.5584 84.4624C74.1793 84.4741 71.8003 84.4741 69.4212 84.4624C69.1682 84.4694 68.9151 84.4499 68.6662 84.4041C68.5581 84.3947 68.4531 84.3631 68.3578 84.3112C68.2625 84.2593 68.179 84.1883 68.1125 84.1026C68.046 84.0169 67.998 83.9184 67.9713 83.8132C67.9447 83.7081 67.94 83.5986 67.9576 83.4915C67.9576 83.2 68.0102 82.9084 68.0102 82.6169C68.0102 80.1212 67.9781 77.6255 67.9635 75.1299C67.9615 74.9735 67.9743 74.8173 68.0015 74.6634C68.0167 74.4653 68.1051 74.2799 68.2496 74.1436C68.3941 74.0072 68.5841 73.9295 68.7828 73.9258C69.0354 73.8985 69.2898 73.8888 69.5438 73.8966H106.049C108.469 73.8966 110.886 73.8966 113.305 73.8529C113.809 73.8165 114.308 73.7326 114.795 73.6021C115.623 73.4243 116.335 72.987 117.069 72.5788C117.944 72.0831 118.562 71.3426 119.172 70.5875C119.446 70.2841 119.671 69.9386 119.836 69.5641C120.347 68.1909 120.801 66.7973 120.69 65.2929C120.667 64.9256 120.72 64.5407 120.711 64.1821ZM72.4388 89.722C73.5671 89.722 74.7012 89.8036 75.8295 89.754C77.4243 89.687 78.3135 90.8182 78.5439 91.9931C78.6479 92.627 78.6852 93.27 78.6548 93.9116C78.6548 94.5384 78.3252 94.8241 77.6926 94.8591C77.2057 94.8883 76.7159 94.8766 76.2348 94.8766H44.482C43.9951 94.8766 43.5082 94.8766 43.0243 94.8591C42.3887 94.8241 42.0738 94.5384 42.0621 93.9116C42.0303 93.27 42.0674 92.6268 42.173 91.9931C42.4033 90.8269 43.2896 89.687 44.8873 89.754C46.0156 89.8036 47.1468 89.722 48.278 89.722H72.4418H72.4388ZM57.9254 74.8879C57.94 74.2639 58.2169 73.9287 58.8001 73.9112C59.3219 73.9112 59.8468 73.8937 60.3716 73.8908C60.8963 73.8878 61.4182 73.8908 61.943 73.9112C62.5261 73.9287 62.7885 74.2639 62.8031 74.8879C62.8206 75.6459 62.8031 76.4068 62.8031 77.1649C62.8031 79.2524 62.8031 81.3379 62.8031 83.4216C62.8031 84.1242 62.5902 84.4187 61.8993 84.4362C61.3861 84.4362 60.873 84.4536 60.3599 84.4536C59.8467 84.4536 59.3336 84.4536 58.8205 84.4362C58.1295 84.4187 57.9138 84.1242 57.9138 83.4216C57.9138 81.3379 57.9138 79.2524 57.9138 77.1649C57.9284 76.4068 57.9079 75.6459 57.9254 74.8879ZM115.419 65.9198C115.436 66.5134 115.228 67.0916 114.836 67.5379C114.195 68.2026 113.46 68.7041 112.475 68.6195C112.3 68.6195 112.125 68.6195 111.947 68.6195H8.73786C8.56293 68.6195 8.38799 68.6195 8.21306 68.6195C7.2247 68.6924 6.49295 68.2026 5.84862 67.5379C5.4565 67.0917 5.24813 66.5135 5.26552 65.9198C5.24802 65.4504 5.26552 64.981 5.26552 64.5145C5.2247 61.978 5.17224 59.4444 5.14309 56.9108C5.14309 56.2665 5.18384 55.6222 5.22466 54.9808C5.37627 52.5842 5.22468 50.1848 5.24509 47.7882C5.24509 46.6774 5.2626 45.5637 5.2626 44.4529V9.80496C5.2626 9.25685 5.2626 8.71165 5.2626 8.16645C5.23964 7.45588 5.49762 6.76487 5.98059 6.24316C6.46355 5.72146 7.13263 5.41106 7.84285 5.37922C8.21312 5.37922 8.58334 5.32675 8.95361 5.32675H111.719C112.09 5.32675 112.457 5.37048 112.827 5.37922C113.538 5.41181 114.206 5.72233 114.69 6.24379C115.173 6.76524 115.432 7.45581 115.411 8.16645C115.411 8.71165 115.411 9.25685 115.411 9.80496C115.411 21.3523 115.411 32.9016 115.411 44.4529C115.411 45.5637 115.411 46.6774 115.428 47.7882C115.443 50.1848 115.297 52.5842 115.448 54.9808C115.489 55.6222 115.539 56.2665 115.53 56.9108C115.501 59.4444 115.448 61.978 115.408 64.5145C115.41 64.981 115.437 65.4504 115.419 65.9198Z" fill="white"/>
<path d="M76.5291 36.0707L52.5024 22.1987V49.9427L76.5291 36.0707Z" stroke="white" stroke-width="3.79016" stroke-miterlimit="10"/>
<path d="M146.09 40.5227H125.827C124.312 40.5227 123.084 41.751 123.084 43.2662V49.4296C123.084 50.9448 124.312 52.1731 125.827 52.1731H146.09C147.605 52.1731 148.834 50.9448 148.834 49.4296V43.2662C148.834 41.751 147.605 40.5227 146.09 40.5227Z" stroke="white" stroke-width="2.33241" stroke-miterlimit="10"/>
<path d="M122.209 44.001H116.297V47.9719H122.209V44.001Z" stroke="white" stroke-width="1.1662" stroke-miterlimit="10"/>
</g>
<defs>
<clipPath id="clip0_356_76">
<rect width="150" height="100.224" fill="white"/>
</clipPath>
</defs>
</svg>
