<svg width="146" height="100" viewBox="0 0 146 100" fill="none" xmlns="http://www.w3.org/2000/svg">
<g opacity="0.36" clip-path="url(#clip0_356_83)">
<path d="M87.9301 52.4769C89.3042 52.4769 90.4181 51.363 90.4181 49.989C90.4181 48.6149 89.3042 47.501 87.9301 47.501C86.556 47.501 85.4421 48.6149 85.4421 49.989C85.4421 51.363 86.556 52.4769 87.9301 52.4769Z" fill="white"/>
<path d="M36.5549 85.0886H29.4748C28.1205 85.0886 27.0227 86.1865 27.0227 87.5407C27.0227 88.895 28.1205 89.9928 29.4748 89.9928H36.5549C37.9092 89.9928 39.007 88.895 39.007 87.5407C39.007 86.1865 37.9092 85.0886 36.5549 85.0886Z" fill="white"/>
<path d="M23.1292 47.4595V60.0596C23.1292 61.4138 24.227 62.5117 25.5812 62.5117C26.9355 62.5117 28.0333 61.4138 28.0333 60.0596V47.4595C28.0333 46.1053 26.9355 45.0074 25.5812 45.0074C24.227 45.0074 23.1292 46.1053 23.1292 47.4595Z" fill="white"/>
<path d="M13.9035 25.2141H2.45209C1.09784 25.2141 0 26.312 0 27.6662C0 29.0205 1.09784 30.1183 2.45209 30.1183H13.9035C15.2577 30.1183 16.3556 29.0205 16.3556 27.6662C16.3556 26.312 15.2577 25.2141 13.9035 25.2141Z" fill="white"/>
<path d="M21.5166 85.0886H14.4365C13.0822 85.0886 11.9844 86.1865 11.9844 87.5407C11.9844 88.895 13.0822 89.9928 14.4365 89.9928H21.5166C22.8709 89.9928 23.9687 88.895 23.9687 87.5407C23.9687 86.1865 22.8709 85.0886 21.5166 85.0886Z" fill="white"/>
<path d="M23.2948 30.3033C24.7512 30.3033 25.9319 29.1226 25.9319 27.6662C25.9319 26.2097 24.7512 25.0291 23.2948 25.0291C21.8384 25.0291 20.6577 26.2097 20.6577 27.6662C20.6577 29.1226 21.8384 30.3033 23.2948 30.3033Z" fill="white"/>
<path d="M87.8527 0.0166274C104.441 0.0166274 121.029 0.0111054 137.615 5.99197e-05C138.745 -0.00445871 139.86 0.246645 140.879 0.734575C141.766 1.12751 142.566 1.69359 143.232 2.39962C143.898 3.10565 144.416 3.93743 144.756 4.84625C145.125 5.79896 145.312 6.81237 145.308 7.83404C145.308 19.6416 145.308 31.4492 145.308 43.2568C145.308 44.215 145.248 45.1732 145.22 46.1314C145.22 46.3716 145.22 46.6119 145.22 46.8521C145.242 47.5342 145.295 48.2162 145.286 48.8983C145.264 51.7425 145.217 54.5839 145.19 57.4281C145.19 57.8893 145.242 58.3504 145.259 58.8088C145.286 59.4715 145.308 60.137 145.322 60.7997C145.322 61.1504 145.281 61.5039 145.306 61.8518C145.408 63.2767 144.977 64.5966 144.497 65.8972C144.339 66.2513 144.126 66.5784 143.867 66.8665C143.287 67.5817 142.715 68.283 141.873 68.7525C141.177 69.1391 140.506 69.5533 139.719 69.7217C139.258 69.8454 138.785 69.925 138.308 69.9592C136.019 69.9923 133.727 70.0006 131.438 70.0006H96.8603C96.6206 69.9931 96.3807 70.0024 96.1423 70.0282C95.9541 70.0318 95.7741 70.1053 95.6373 70.2345C95.5004 70.3637 95.4166 70.5392 95.4023 70.7268C95.3738 70.8723 95.3617 71.0205 95.3663 71.1687C95.3811 73.5324 95.3958 75.8961 95.4105 78.2598C95.4105 78.536 95.3664 78.8121 95.3581 79.0882C95.3418 79.1896 95.3464 79.2932 95.3718 79.3926C95.3973 79.492 95.4428 79.5851 95.5057 79.6662C95.5687 79.7473 95.6476 79.8145 95.7376 79.8638C95.8277 79.913 95.9269 79.9433 96.0291 79.9526C96.2649 79.9958 96.5046 80.0143 96.7442 80.0078C98.9975 80.0078 101.251 80.0078 103.504 80.0078C104.116 79.9641 104.728 80.1004 105.263 80.3999C105.323 80.4436 105.392 80.4745 105.465 80.491C106.293 80.618 106.906 81.1317 107.547 81.5956C107.83 81.8306 108.092 82.0892 108.331 82.3687C108.963 83.0692 109.488 83.8592 109.888 84.7131C110.164 85.2612 110.305 85.867 110.3 86.4804C110.3 88.5155 110.3 90.5479 110.3 92.5803C110.299 93.197 110.057 93.7889 109.625 94.2299C109.194 94.6709 108.608 94.9261 107.991 94.9412C107.732 94.9412 107.472 94.9412 107.215 94.9412H71.3177C70.3954 94.9412 69.4703 94.9109 68.5563 94.955C67.7113 94.9937 67.0071 94.6568 66.3196 94.2564C66.1496 94.1449 66.0154 93.9867 65.933 93.8008C65.685 93.3035 65.5501 92.7575 65.5381 92.202C65.552 90.3712 65.4884 88.5404 65.5906 86.7151C65.629 85.6616 65.9329 84.6348 66.4742 83.7301C67.1552 82.628 68.073 81.6913 69.161 80.9881C70.2438 80.2989 71.5093 79.9525 72.7922 79.994C74.9157 80.0133 77.0392 79.994 79.1627 79.994C79.3664 80.0009 79.5704 79.9926 79.7729 79.9691C79.9512 79.9605 80.1189 79.8821 80.2398 79.7509C80.3607 79.6196 80.4251 79.4461 80.4191 79.2677C80.4357 78.9916 80.4191 78.7155 80.4191 78.4393C80.4191 76.2302 80.4191 74.0313 80.4191 71.8424C80.4191 71.5083 80.4523 71.1769 80.444 70.8456C80.4555 70.7294 80.4411 70.612 80.4019 70.502C80.3628 70.3919 80.2998 70.2919 80.2175 70.2091C80.1351 70.1262 80.0355 70.0626 79.9257 70.0227C79.816 69.9829 79.6987 69.9678 79.5824 69.9785C79.2124 69.9785 78.8424 69.9923 78.4779 69.9923C72.4029 69.9923 66.3582 69.9923 60.2998 69.9923C59.4543 70.0153 58.6082 69.9941 57.7649 69.9288C57.4899 69.9193 57.221 69.8446 56.9806 69.7107C55.8402 68.9402 55.2741 68.0925 55.6165 66.7947C55.8512 65.9027 56.5002 65.414 57.3037 65.1158C57.6396 65.0165 57.9893 64.9727 58.3393 64.986C59.2091 64.9694 60.0761 64.986 60.946 64.986H137.024C137.19 64.986 137.358 64.986 137.521 64.986C138.457 65.055 139.153 64.5911 139.761 63.9615C140.127 63.5369 140.32 62.9894 140.299 62.429C140.319 61.9844 140.299 61.5398 140.299 61.098C140.338 58.6956 140.388 56.296 140.415 53.8963C140.415 53.2861 140.377 52.6758 140.341 52.0683C140.197 49.7985 140.341 47.5259 140.319 45.256C140.319 44.204 140.302 43.1491 140.302 42.097V9.28652C140.302 8.76739 140.302 8.25101 140.302 7.73464C140.324 7.06164 140.079 6.40717 139.622 5.91304C139.165 5.41891 138.531 5.12493 137.858 5.09478C137.508 5.09478 137.157 5.04508 136.806 5.04508H42.7817C41.401 5.04508 40.0203 5.06164 38.6397 5.02851C37.8211 5.01931 37.0213 5.27394 36.3588 5.75473C36.1617 5.89441 35.9947 6.07222 35.8676 6.27759C35.7405 6.48297 35.6559 6.71175 35.6188 6.95041C35.547 7.31426 35.5101 7.6841 35.5083 8.05495C35.5083 14.0618 35.5083 20.0678 35.5083 26.0728C35.5083 26.5892 35.5083 27.1084 35.5083 27.6247C35.4986 28.0466 35.3802 28.4589 35.1647 28.8217C34.9492 29.1846 34.6438 29.4857 34.278 29.6961C33.9122 29.9065 33.4982 30.019 33.0762 30.0229C32.6542 30.0267 32.2384 29.9216 31.8688 29.7178C31.4914 29.5324 31.1741 29.2439 30.9538 28.8857C30.7334 28.5275 30.6189 28.1143 30.6234 27.6938C30.6234 27.0089 30.6234 26.3131 30.6234 25.6421C30.6234 19.7291 30.6234 13.8161 30.6234 7.90308C30.6424 7.14634 30.7042 6.39128 30.8085 5.64152C30.8665 5.35518 30.9592 5.07698 31.0846 4.81311C31.1509 4.64191 31.2668 4.49004 31.3331 4.31884C31.8578 2.97957 32.9126 2.10974 34.0337 1.32551C34.7365 0.845281 35.5072 0.472972 36.3201 0.220966C36.6184 0.124926 36.9291 0.0737451 37.2424 0.069094C38.6636 0.0414804 40.0857 0.0276668 41.5088 0.0276668H87.8997L87.8527 0.0166274ZM87.8527 89.8355V89.8603H103.198C103.659 89.8603 104.12 89.8603 104.578 89.8438C105.18 89.8106 105.478 89.54 105.49 88.9463C105.521 88.3386 105.486 87.7293 105.385 87.1293C105.166 86.0248 104.327 84.9451 102.814 85.0086C101.745 85.0555 100.674 84.9782 99.6023 84.9782C94.9871 84.9782 90.372 84.9782 85.7568 84.9782C82.8408 84.9782 79.922 85.0059 77.006 85.0169C75.6253 85.0169 74.2447 85.0169 72.864 85.0169C72.3987 84.9941 71.9402 85.1358 71.5689 85.4173C71.3306 85.5922 71.1177 85.7995 70.9366 86.0331C70.7497 86.2564 70.6225 86.5233 70.5666 86.809C70.4893 87.5794 70.4671 88.3554 70.4561 89.1313C70.4561 89.5897 70.7157 89.8299 71.1879 89.8465C71.4088 89.8465 71.6324 89.8465 71.8533 89.8465L87.8527 89.8355ZM85.442 74.9711H85.4641C85.4641 76.3352 85.4641 77.702 85.4641 79.0689C85.4641 79.693 85.6519 79.9553 86.1903 79.9691C87.3335 79.994 88.4795 80.0023 89.62 79.9691C90.2744 79.9526 90.4815 79.6737 90.4787 79.0082C90.4787 77.0347 90.4741 75.0594 90.4649 73.0823C90.4649 72.3643 90.4815 71.6436 90.4649 70.9257C90.4649 70.3347 90.1888 70.0172 89.6503 70.0006C88.4905 69.9702 87.328 69.9758 86.1655 70.0006C85.9855 69.9961 85.8111 70.063 85.6802 70.1866C85.5493 70.3103 85.4727 70.4806 85.4669 70.6606C85.4461 70.806 85.4378 70.9528 85.442 71.0996V74.9711Z" fill="white"/>
<path d="M0.657229 67.4131V43.8587C0.657229 43.2319 0.657243 42.6023 0.671049 41.9754C0.723253 41.0723 0.933544 40.1853 1.29236 39.3549C1.81149 38.0543 2.74487 37.1596 3.87979 36.4168C4.32559 36.0927 4.79647 35.8046 5.28804 35.5553C6.27948 35.1413 7.3484 34.9454 8.42221 34.9809C18.8178 34.9809 29.2134 34.9809 39.609 34.9809C40.9897 34.9809 42.3704 34.9809 43.7511 35.0444C44.1877 35.1013 44.6172 35.204 45.0324 35.3509C45.0848 35.3647 45.1317 35.4061 45.187 35.4117C46.1341 35.5497 46.8769 36.0993 47.6336 36.6239C47.7879 36.7244 47.9347 36.836 48.0726 36.958C48.9234 37.7331 49.5758 38.7008 49.9752 39.7801C50.3588 40.7651 50.5301 41.8199 50.4778 42.8756C50.4308 43.5163 50.4612 44.1652 50.4612 44.8086C50.4612 60.2354 50.4612 75.6613 50.4612 91.0863C50.4612 92.1742 50.5219 93.2705 50.2209 94.3364C49.7698 96.0869 48.6881 97.6091 47.1834 98.611C46.3274 99.1853 45.3582 99.4946 44.4221 99.8481C44.0325 99.9626 43.6263 100.009 43.2209 99.9861C39.9349 99.9861 36.6461 99.9861 33.3601 99.9861H13.0834C11.6419 99.9861 10.2033 99.9861 8.76186 99.9861C8.11516 100.006 7.46806 99.965 6.8289 99.8647C6.19489 99.7407 5.58262 99.5239 5.0119 99.2213C4.25919 98.8284 3.55178 98.3543 2.90225 97.8074C2.2993 97.2896 1.81198 96.6508 1.47189 95.9325C0.899477 94.6889 0.621609 93.3301 0.659993 91.9616C0.687607 83.7769 0.659993 75.5923 0.659993 67.4076L0.657229 67.4131ZM45.5901 67.032V44.1403C45.5901 43.7151 45.5901 43.2898 45.6205 42.8674C45.6766 42.3854 45.5462 41.9004 45.256 41.5115C45.1365 41.3465 45.0277 41.1741 44.9302 40.9952C44.8111 40.7638 44.6371 40.5652 44.4233 40.4169C44.2095 40.2686 43.9626 40.1751 43.7042 40.1447C43.0644 40.0412 42.4188 39.9775 41.7712 39.9541C31.764 39.9431 21.755 39.9431 11.7441 39.9541C10.5264 39.9541 9.30862 39.9541 8.09086 40.0038C7.74135 40.0157 7.3973 40.0945 7.0774 40.2358C6.10264 40.6693 5.42062 41.876 5.4648 42.9971C5.49242 43.7538 5.51725 44.5104 5.51725 45.267C5.51725 58.5694 5.51725 71.8709 5.51725 85.1714C5.51725 87.4634 5.48684 89.7525 5.48132 92.0445C5.4712 92.303 5.49913 92.5617 5.56418 92.8121C5.71605 93.3257 5.87622 93.8642 6.33737 94.1928C6.96714 94.6883 7.74516 94.9576 8.54646 94.9577C9.50465 94.9246 10.4656 94.9577 11.4265 94.9577H42.6714C42.8195 94.966 42.9679 94.966 43.1159 94.9577C44.0382 94.8555 44.7424 94.4662 45.1622 93.577C45.4935 92.8729 45.7393 92.1963 45.5847 91.3955C45.5722 91.2661 45.5722 91.1357 45.5847 91.0062L45.5901 67.032Z" fill="white"/>
<path d="M88.8939 17.532C96.8403 17.7916 104.418 20.9447 110.203 26.3987C110.952 27.1084 111.893 28.2599 111.584 29.3727C111.275 30.4855 110.049 31.4023 108.897 31.2559C107.892 31.1262 107.108 30.3585 106.359 29.6709C104.131 27.6248 101.573 25.9704 98.7934 24.7778C93.9381 22.6711 88.5746 22.0233 83.3574 22.9133C78.1401 23.8032 73.2947 26.1925 69.4124 29.7897C68.885 30.2784 68.3604 30.7975 67.7059 31.093C66.1071 31.811 64.3481 30.5021 64.3398 28.8232C64.3398 27.5171 65.4306 26.6307 66.3418 25.8161C72.5523 20.3208 80.603 17.3636 88.8939 17.532Z" fill="white"/>
<path d="M88.0682 27.6303C90.8434 27.68 93.5495 28.271 96.3357 29.1325C96.9268 29.3428 97.4957 29.6111 98.034 29.9333C99.5292 30.6953 100.937 31.6184 102.231 32.6864C102.637 33.0343 103.038 33.3878 103.446 33.7329C104.694 34.7878 104.965 36.5606 103.648 37.6844C103.353 37.9355 103.004 38.1137 102.628 38.2044C102.252 38.295 101.859 38.2957 101.483 38.2063C100.298 37.9054 99.4202 36.7511 98.4675 36.047C97.4456 35.2945 96.3446 34.6556 95.1842 34.1416C92.8573 33.1061 90.3362 32.579 87.7893 32.5952C87.1058 32.6003 86.4234 32.6482 85.7459 32.7388C82.4122 33.16 79.2694 34.5296 76.6914 36.6848C76.1586 37.1975 75.564 37.6418 74.9214 38.0075C73.2839 38.8111 71.9833 37.7894 71.3592 36.2982C71.2876 36.1251 71.2573 35.9376 71.2707 35.7506C71.2841 35.5637 71.3409 35.3825 71.4365 35.2213C71.6815 34.7264 71.9958 34.2689 72.3699 33.8627C75.4565 30.9925 79.2533 28.9982 83.3684 28.086C84.9119 27.7515 86.4892 27.5985 88.0682 27.6303Z" fill="white"/>
<path d="M88.002 37.5352C89.798 37.5309 91.5728 37.9241 93.1989 38.6867C94.2609 39.1851 95.2443 39.8363 96.1177 40.6196C97.1559 41.5502 98.0506 42.9944 97.0593 44.2895C96.7267 44.7123 96.3066 45.058 95.8277 45.3029C94.4305 46.0568 93.3425 44.527 92.3042 43.8477C91.0538 43.0264 89.5943 42.5803 88.0984 42.5622C86.6025 42.5441 85.1326 42.9547 83.8627 43.7455C82.6808 44.4773 81.3775 46.123 79.8477 45.1759C79.069 44.6871 78.536 44.0465 78.4504 43.1049C78.4067 42.7467 78.4485 42.3833 78.5724 42.0445C78.6962 41.7056 78.8985 41.4009 79.1628 41.1553C81.533 38.8552 84.6993 37.5584 88.002 37.5352Z" fill="white"/>
<path d="M26.1059 74.8854C25.7331 74.902 25.3548 74.9048 24.9764 74.8854C22.3466 74.7886 19.789 73.999 17.5622 72.5965C15.3355 71.1941 13.5185 69.2285 12.2951 66.8985C11.0717 64.5686 10.4853 61.9569 10.595 59.3276C10.7048 56.6983 11.507 54.1445 12.9204 51.9247C13.5748 50.9002 14.5633 49.8564 15.7756 49.9586C16.266 50.0134 16.7268 50.2211 17.0927 50.5523C18.7496 51.9634 17.7472 53.507 16.9022 54.9705C16.3465 55.8893 15.9663 56.9034 15.7811 57.961C15.5947 59.2809 15.5947 60.6203 15.7811 61.9402C15.8971 62.9122 16.3168 63.7847 16.7503 64.6408C17.5759 66.2219 18.8061 67.5559 20.3153 68.5067C20.375 68.5497 20.4388 68.5868 20.5058 68.6171C21.5027 69.0037 22.4388 69.5726 23.4798 69.8073C27.3457 70.6661 31.6783 68.7939 33.846 65.552C36.2428 61.9623 35.9308 57.1299 33.3875 53.7168C32.9209 53.0927 32.9154 51.7839 33.5063 51.1322C33.6913 50.9278 33.8874 50.7318 34.0751 50.5274C34.2055 50.3825 34.3636 50.2652 34.54 50.1822C34.7164 50.0992 34.9076 50.0523 35.1023 50.0442C35.4145 50.0124 35.7291 50.0124 36.0412 50.0442C36.277 50.0754 36.502 50.1614 36.6984 50.2955C37.3341 50.7451 37.8514 51.342 38.2061 52.0351C38.369 52.3444 38.5817 52.6261 38.7584 52.9188C38.7946 52.9609 38.827 53.0062 38.8551 53.0541C39.1616 53.7831 39.4929 54.5038 39.7636 55.2632C43.1379 64.5358 35.5939 74.474 26.1059 74.8854Z" fill="white"/>
</g>
<defs>
<clipPath id="clip0_356_83">
<rect width="145.317" height="100" fill="white"/>
</clipPath>
</defs>
</svg>
